<?xml version="1.0" encoding="utf-8"?>
<!DOCTYPE svg PUBLIC "-//W3C//DTD SVG 1.0//EN" "http://www.w3.org/TR/2001/REC-SVG-20010904/DTD/svg10.dtd">
<svg version="1.0" id="logo" xmlns="http://www.w3.org/2000/svg" xmlns:xlink="http://www.w3.org/1999/xlink" x="0px" y="0px"
	 width="292px" height="72px" viewBox="0 0 292 72" enable-background="new 0 0 292 72" xml:space="preserve">
<g>


	<g>
		<path fill="#FFFFFF" d="M120.5,70.8L101.5 39.4 97.6 70.8 73.6 70.8 82.1 1 103.9 1 123 32 126.8 1 150.8 1 142.2 70.8 z"/>

	</g>


	<g>
		<path fill="#FFFFFF" d="M187.9,1c24.3,0,36.5,12.6,33.7,34.9c-2.7,22.3-18,34.9-42.3,34.9h-29.8L158.1,1H187.9z M181.8,50.9
			c8.7,0,14.3-5.4,15.5-15c1.2-9.6-3.1-15-11.8-15h-5.7l-3.7,30H181.8z"/>

	</g>


	<g>
		<path fill="#FFFFFF" d="M261.8,1c20.6,0,30.9,10.3,28.6,28.7c-2.2,17.5-15,27.4-35.6,27.4h-6.3l-1.7,13.7h-24L231.4,1H261.8z
			 M257.1,38.1c5.7,0,9.3-3,10-8.4c0.7-5.4-2.2-8.4-7.9-8.4h-6.3l-2.1,16.7H257.1z"/>

	</g>


	<g>
		<path fill="#EF7918" d="M8.3,1L0,69c3-1.8,5.3-3,8.6-3c6.1,0,7.7,3,12.1,4.3c4.2,1.3,6.9,0.7,9.8-0.5c-0.9-1-1.2-1.6-1.9-3.3
			c-1.6-4-5-4.3-5-4.3c4.6-1.1,6.5,0.7,8.6,2.5c2.5,2.1,6.4,1.6,6.5,1.5l-7.3-13c0,0,12.9,7.8,12.9,7.8c-1-2.2-1.4-4.1-1.9-8.4
			C41.8,47.5,39,46,39,46c4.1,0.5,5.4,2.3,6.9,6c1.3,3.3,4.5,5,5.5,5.4l0.4-14.2c0,0,5.9,12.5,6.1,12.4c0.2-2.5,1.3-5.1,2.8-7.9
			c2.4-4.6,1.1-6.8,1.1-6.8c3.4,2.9,2.5,5.3,2.3,8.5c-0.3,3.4,3,5.1,4,6l0.6-5.1L74.8,1H8.3z"/>
	</g>


	<g>
		<g>
			<path fill="#FFFFFF" d="M63,16.4c-3-1-5.4-1.6-7.8-1.6c-5.1,0-8.2,3-8.9,9c-0.6,5.4,1.8,8.8,6.3,8.8c3.4,0,5.9-0.7,9.5-2.4l1.5,5
				c-3.9,2.3-7.7,3.3-12,3.3c-8.3,0-12.8-5.3-11.7-14.8c1.2-9.5,6.9-14.9,15.7-14.9c3.4,0,7,0.9,9.8,2.5L63,16.4z"/>
		</g>
		<path fill="#FFFFFF" d="M31.7,23c2.8-0.9,4.6-2.8,4.9-5.6c0.6-5.2-2.7-8-9.6-8H16.7l-3.5,28.8h10.6c7.9,0,12.5-2.8,13.1-8.2
			C37.4,26.4,35.6,24,31.7,23z M30.5,29.2c-0.3,2.1-2.3,3.3-5.8,3.3h-4.5L21,26h5.2C29.2,26,30.8,27.2,30.5,29.2z M30.6,17.9
			c-0.2,1.8-1.6,2.7-3.8,2.7h-5.2l0.7-5.7h4.1C29.4,14.9,30.9,15.9,30.6,17.9z"/>
	</g>
</g>
</svg>
